<svg width="14" height="15" viewBox="0 0 14 15" fill="none" xmlns="http://www.w3.org/2000/svg">
<path d="M5.10419 11.0654V13.7709C5.10419 13.9599 5.22552 14.1273 5.40519 14.1868C5.4501 14.2014 5.49619 14.2084 5.54169 14.2084C5.67819 14.2084 5.81002 14.1442 5.89402 14.0299L7.4766 11.8762L5.10419 11.0654Z" fill="#F7918F"/>
<path d="M13.8162 0.872822C13.6821 0.777739 13.5059 0.764905 13.3601 0.841322L0.235108 7.69546C0.0799423 7.77655 -0.0116407 7.94221 0.00119261 8.11663C0.0146092 8.29163 0.130692 8.44096 0.295775 8.49755L3.94451 9.74471L11.7151 3.10056L5.70209 10.345L11.8172 12.435C11.8627 12.4502 11.9105 12.4584 11.9583 12.4584C12.0377 12.4584 12.1164 12.4368 12.1858 12.3948C12.2967 12.3271 12.3719 12.2134 12.3912 12.0856L13.9953 1.29399C14.0192 1.13065 13.9504 0.968488 13.8162 0.872822Z" fill="#F7918F"/>
</svg>
