<svg width="16" height="8" viewBox="0 0 16 8" fill="none" xmlns="http://www.w3.org/2000/svg">
<path d="M15.985 5.15747V5.14515C15.9807 5.09292 15.9705 5.0413 15.9547 4.99117C15.7469 4.06727 15.0259 3.23269 14.0668 2.99556C13.5936 2.88486 13.1129 2.80664 12.6282 2.76151C12.4459 2.75256 12.2683 2.70247 12.1097 2.61527C11.9512 2.52808 11.8161 2.40622 11.7154 2.25953C10.8634 1.08618 9.67415 0.411743 8.21631 0.157673C6.84917 -0.0556136 5.45506 -0.052493 4.08897 0.166912C3.69878 0.217287 3.32515 0.350814 2.99527 0.557779C2.66539 0.764744 2.38755 1.03994 2.18196 1.36335C2.00772 1.62358 1.87185 1.91153 1.68322 2.16098C1.50586 2.43318 1.28462 2.67644 1.02784 2.88161C0.801838 3.02231 0.607344 3.20514 0.455807 3.41935C0.304269 3.63355 0.198751 3.87479 0.145464 4.12887C0.0799252 4.46917 0.0367656 4.81255 0 5.15747H0.00799252C0.00561634 5.19233 0.00561634 5.22731 0.00799252 5.26217V6.03208C0.0100781 6.11242 0.0446792 6.18879 0.10441 6.24489C0.164141 6.30099 0.24427 6.33237 0.327693 6.33235H1.52657C1.57606 5.87446 1.79992 5.45048 2.15491 5.14227C2.50991 4.83406 2.97087 4.66349 3.44877 4.66349C3.92668 4.66349 4.38763 4.83406 4.74263 5.14227C5.09763 5.45048 5.32148 5.87446 5.37097 6.33235H11.0888C11.0888 6.30925 11.0888 6.28615 11.0888 6.26306C11.1033 5.77838 11.3133 5.31824 11.6743 4.98034C12.0353 4.64245 12.5189 4.45343 13.0222 4.45343C13.5256 4.45343 14.0091 4.64245 14.3701 4.98034C14.7311 5.31824 14.9411 5.77838 14.9556 6.26306C14.9556 6.28615 14.9556 6.30925 14.9556 6.33235H15.6797C15.7631 6.33237 15.8433 6.30099 15.903 6.24489C15.9627 6.18879 15.9973 6.11242 15.9994 6.03208V5.1975C16.0002 5.18417 16.0002 5.1708 15.9994 5.15747H15.985ZM6.29811 3.08641C5.339 3.08641 4.40548 3.10951 3.47355 3.07563C3.01478 3.06023 2.90768 2.82618 3.07712 2.40735C3.63979 1.02151 4.54774 0.568805 6.29811 0.827494V3.08641ZM10.4238 3.08641C9.38322 3.10181 8.34579 3.08641 7.24442 3.08641V0.850592C8.4449 0.636557 10.2464 1.52811 10.7611 2.58443C10.9178 2.91549 10.8267 3.08795 10.4238 3.09411V3.08641Z" fill="#F7918F"/>
<path d="M3.43201 5.0713C3.13121 5.07191 2.83736 5.15847 2.58765 5.32002C2.33795 5.48157 2.14361 5.71085 2.02923 5.97884C1.91485 6.24683 1.88558 6.54148 1.94511 6.8255C2.00465 7.10953 2.15032 7.37015 2.36369 7.57439C2.57706 7.77863 2.84853 7.9173 3.14374 7.97286C3.43896 8.02842 3.74465 7.99836 4.02213 7.88649C4.2996 7.77462 4.53639 7.58597 4.70252 7.34441C4.86864 7.10286 4.95665 6.81926 4.95538 6.52951C4.95475 6.3374 4.91485 6.1473 4.83795 5.97006C4.76106 5.79281 4.64867 5.63189 4.50721 5.49648C4.36575 5.36107 4.19799 5.25383 4.01351 5.18088C3.82902 5.10792 3.63143 5.07069 3.43201 5.0713ZM3.43201 7.18547C3.29821 7.18547 3.16741 7.14723 3.05618 7.07559C2.94495 7.00395 2.85829 6.90213 2.80716 6.78303C2.75603 6.66392 2.74273 6.53288 2.76895 6.40649C2.79517 6.2801 2.85973 6.16404 2.95445 6.07301C3.04918 5.98198 3.16981 5.92007 3.30108 5.89511C3.43234 5.87015 3.56835 5.88327 3.69187 5.93281C3.8154 5.98234 3.92089 6.06606 3.995 6.17338C4.0691 6.28069 4.10849 6.40678 4.10817 6.53567C4.10649 6.7072 4.03445 6.87113 3.90778 6.99171C3.78111 7.11229 3.61009 7.17972 3.43201 7.17931V7.18547Z" fill="#F7918F"/>
<path d="M14.5465 6.26613C14.5465 5.97644 14.4573 5.69325 14.2902 5.45241C14.123 5.21156 13.8855 5.02387 13.6077 4.91308C13.3298 4.80229 13.0241 4.77338 12.7291 4.83001C12.4342 4.88664 12.1633 5.02626 11.9508 5.23121C11.7383 5.43616 11.5936 5.69723 11.5351 5.98139C11.4766 6.26555 11.507 6.56003 11.6223 6.82758C11.7376 7.09513 11.9327 7.32373 12.1829 7.48445C12.4331 7.64517 12.7271 7.7308 13.0279 7.73049C13.2274 7.73049 13.425 7.69261 13.6094 7.619C13.7937 7.54538 13.9612 7.4375 14.1022 7.3015C14.2433 7.1655 14.3551 7.00406 14.4313 6.8264C14.5075 6.64874 14.5467 6.45836 14.5465 6.26613ZM12.3517 6.26613C12.352 6.13704 12.3922 6.01096 12.467 5.90389C12.5419 5.79682 12.6481 5.71359 12.7721 5.66476C12.8962 5.61594 13.0325 5.60371 13.1637 5.62965C13.295 5.65559 13.4153 5.71851 13.5094 5.81044C13.6035 5.90236 13.6671 6.01914 13.6921 6.14595C13.7172 6.27275 13.7025 6.40387 13.6501 6.52266C13.5976 6.64144 13.5097 6.74254 13.3975 6.8131C13.2853 6.88367 13.1539 6.92053 13.0199 6.91901C12.8404 6.9186 12.6684 6.84964 12.5417 6.72724C12.4149 6.60484 12.3437 6.43901 12.3437 6.26613H12.3517Z" fill="#F7918F"/>
</svg>
