<svg width="152" height="181" viewBox="0 0 152 181" fill="none" xmlns="http://www.w3.org/2000/svg">
<path d="M64.8329 38.4666L67.4552 45.1818C67.6384 45.6509 67.4995 46.184 67.1112 46.5058C67.0139 46.5856 66.9063 46.6476 66.7933 46.6917C66.4545 46.824 66.0651 46.7925 65.7458 46.5902L59.7303 42.7785L64.8329 38.4666Z" fill="#F7918F"/>
<path d="M33.3301 21.612C33.5709 21.246 33.9958 21.0434 34.4318 21.0917L73.6521 25.3831C74.1158 25.4339 74.5037 25.7564 74.6409 26.2017C74.7772 26.6491 74.6338 27.1322 74.2789 27.4327L66.4313 34.0647L40.7045 25.1049L62.6506 37.2581L49.4984 48.3727C49.4001 48.4544 49.2893 48.521 49.1706 48.5674C48.9737 48.6443 48.7573 48.6671 48.5443 48.6301C48.2036 48.5696 47.9066 48.3602 47.735 48.0617L33.2938 22.8309C33.0761 22.4487 33.0898 21.9795 33.3301 21.612Z" fill="#F7918F"/>
<path d="M145.651 163.199C144.826 162.077 144.217 160.901 144.013 160.038C143.455 157.693 142.798 155.242 142.03 152.73C141.478 151.075 142.199 150.629 143.638 151.729C145.078 152.83 146.692 155.065 147.244 156.72C147.269 156.795 147.291 156.868 147.311 156.939C148.168 159.601 148.841 162.255 149.427 164.758C149.777 166.239 148.853 166.381 147.361 165.075C146.795 164.578 146.202 163.919 145.666 163.189L145.651 163.199Z" fill="#F7918F"/>
<path d="M103.973 85.7718L103.547 85.306C101.929 82.9784 100.214 80.68 98.4466 78.4591C97.2524 77.0927 97.0705 75.3277 98.0427 74.5198C99.0149 73.712 100.773 74.1633 101.967 75.5298C102.059 75.6346 102.145 75.7419 102.226 75.8533C104.115 78.229 105.951 80.6821 107.679 83.1748C108.883 84.5357 109.077 86.3036 108.115 87.1227C107.152 87.9429 105.396 87.5046 104.194 86.1454C104.097 86.0341 104.002 85.9171 103.916 85.7983L103.973 85.7718Z" fill="#F7918F"/>
<path d="M78.0653 56.4793L77.7168 56.0988C76.39 54.7953 76.0344 52.9278 76.9212 51.9299C77.808 50.9319 79.6047 51.1813 80.9314 52.4849C83.2708 54.54 85.5846 56.7098 87.8006 58.9389C89.1143 60.2544 89.4457 62.1168 88.5422 63.0965C87.6387 64.0762 85.839 63.8022 84.5253 62.4867C82.4069 60.4116 80.2564 58.3964 78.0653 56.4793Z" fill="#F7918F"/>
<path d="M135.017 133.863C133.896 131.375 132.641 128.8 131.306 126.227C130.507 124.615 130.961 123.697 132.321 124.176C133.62 124.635 135.29 126.212 136.135 127.778C137.555 130.519 138.888 133.269 140.111 135.945C140.83 137.528 140.272 138.345 138.865 137.771C137.459 137.197 135.736 135.447 135.017 133.863Z" fill="#F7918F"/>
<path d="M121.39 112.265C121.035 111.875 120.731 111.452 120.496 111.022C119.1 108.5 117.595 105.949 116.021 103.429C114.988 101.84 115.056 100.403 116.17 100.216C117.204 100.045 118.794 101.014 119.853 102.463L120.128 102.888C121.834 105.587 123.428 108.297 124.907 111.009C125.802 112.608 125.532 113.905 124.304 113.902C123.437 113.901 122.279 113.242 121.342 112.213L121.39 112.265Z" fill="#F7918F"/>
</svg>
