<svg width="18" height="21" viewBox="0 0 18 21" fill="none" xmlns="http://www.w3.org/2000/svg">
<path d="M9.15 0C6.17244 0 3.75 2.42244 3.75 5.4C3.75 8.37756 6.17244 10.8 9.15 10.8C12.1276 10.8 14.55 8.37756 14.55 5.4C14.55 2.42244 12.1276 0 9.15 0ZM9.15 9.6C6.83412 9.6 4.95 7.71588 4.95 5.4C4.95 3.08412 6.83412 1.2 9.15 1.2C11.4659 1.2 13.35 3.08412 13.35 5.4C13.35 7.71588 11.4659 9.6 9.15 9.6Z" fill="#F7918F"/>
<path d="M15.7186 14.3278C14.2402 12.8267 12.2804 12 10.2 12H7.8C5.71968 12 3.75976 12.8267 2.28136 14.3278C0.8102 15.8216 0 17.7933 0 19.88C0 20.2114 0.26864 20.48 0.6 20.48H17.4C17.7314 20.48 18 20.2114 18 19.88C18 17.7933 17.1898 15.8216 15.7186 14.3278ZM1.2264 19.28C1.527 15.8766 4.36044 13.2 7.8 13.2H10.2C13.6396 13.2 16.473 15.8766 16.7736 19.28H1.2264Z" fill="#F7918F"/>
</svg>
