<svg width="17" height="22" viewBox="0 0 17 22" fill="none" xmlns="http://www.w3.org/2000/svg">
<path d="M16.8662 5.68429L10.7829 0.122394C10.6972 0.0440188 10.581 0 10.4597 0H1.88787C0.846875 0 0 0.774293 0 1.72607V19.4162C0 20.368 0.846875 21.1422 1.88787 21.1422H15.1121C16.1531 21.1422 17 20.368 17 19.4162V5.97975C17 5.86896 16.9519 5.76262 16.8662 5.68429ZM10.9168 1.42665L15.4397 5.56181H11.8906C11.3536 5.56181 10.9168 5.16242 10.9168 4.67144V1.42665H10.9168ZM16.086 19.4162C16.086 19.9071 15.6491 20.3065 15.1121 20.3065H1.88787C1.35091 20.3065 0.914034 19.9071 0.914034 19.4162V1.72607C0.914034 1.23513 1.35091 0.835697 1.88787 0.835697H10.0027V4.67153C10.0027 5.6233 10.8495 6.39759 11.8905 6.39759H16.086V19.4162Z" fill="#236898"/>
<path d="M12.156 10.6129H4.84398C4.5916 10.6129 4.38696 10.8 4.38696 11.0307C4.38696 11.2615 4.5916 11.4486 4.84398 11.4486H12.156C12.4084 11.4486 12.613 11.2615 12.613 11.0307C12.613 10.8 12.4084 10.6129 12.156 10.6129Z" fill="#236898"/>
<path d="M12.156 12.4789H4.84398C4.5916 12.4789 4.38696 12.666 4.38696 12.8968C4.38696 13.1275 4.5916 13.3146 4.84398 13.3146H12.156C12.4084 13.3146 12.613 13.1275 12.613 12.8968C12.613 12.666 12.4084 12.4789 12.156 12.4789Z" fill="#236898"/>
<path d="M12.156 14.3456H4.84398C4.5916 14.3456 4.38696 14.5327 4.38696 14.7634C4.38696 14.9942 4.5916 15.1813 4.84398 15.1813H12.156C12.4084 15.1813 12.613 14.9942 12.613 14.7634C12.613 14.5327 12.4084 14.3456 12.156 14.3456Z" fill="#236898"/>
<path d="M9.77957 16.2117H4.84398C4.5916 16.2117 4.38696 16.3988 4.38696 16.6295C4.38696 16.8603 4.5916 17.0474 4.84398 17.0474H9.77957C10.032 17.0474 10.2366 16.8603 10.2366 16.6295C10.2366 16.3988 10.032 16.2117 9.77957 16.2117Z" fill="#236898"/>
</svg>
