<svg width="138" height="155" viewBox="0 0 138 155" fill="none" xmlns="http://www.w3.org/2000/svg">
<path d="M102.249 31.2373L99.2844 37.8087C99.0773 38.2677 99.1886 38.8073 99.5598 39.1487C99.6529 39.2333 99.7571 39.3008 99.8677 39.3507C100.199 39.5002 100.59 39.4888 100.919 39.3032L107.123 35.8062L102.249 31.2373Z" fill="#F7918F"/>
<path d="M134.577 16.0264C134.356 15.6484 133.942 15.4242 133.504 15.4501L94.1147 17.7171C93.649 17.744 93.245 18.046 93.0851 18.4837C92.9259 18.9235 93.0442 19.4134 93.3832 19.7317L100.879 26.7589L127.033 19.1351L104.49 30.1426L117.053 41.9194C117.147 42.0061 117.254 42.0783 117.37 42.1307C117.563 42.2177 117.778 42.2515 117.993 42.2256C118.336 42.1827 118.643 41.9888 118.83 41.6996L134.551 17.2456C134.788 16.8751 134.798 16.4058 134.577 16.0264Z" fill="#F7918F"/>
<path d="M7.02352 150.815C7.95319 149.778 8.67349 148.666 8.95962 147.827C9.74068 145.546 10.631 143.17 11.6378 140.744C12.3473 139.15 11.6728 138.636 10.134 139.593C8.59521 140.55 6.77289 142.619 6.06338 144.212C6.03121 144.284 6.00228 144.355 5.97527 144.424C4.86634 146.991 3.93979 149.567 3.11537 152.002C2.62368 153.442 3.53047 153.673 5.14062 152.517C5.75206 152.077 6.40614 151.478 7.01033 150.803L7.02352 150.815Z" fill="#F7918F"/>
<path d="M55.9771 77.7697L56.4467 77.3473C58.282 75.1866 60.2106 73.0644 62.1838 71.0244C63.5042 69.7795 63.8555 68.0403 62.9658 67.1424C62.076 66.2445 60.2829 66.5242 58.9625 67.769C58.8609 67.8645 58.7649 67.963 58.6731 68.0661C56.5643 70.2485 54.5002 72.513 52.5394 74.8273C51.2103 76.0658 50.8457 77.8066 51.7241 78.7147C52.6036 79.6239 54.3937 79.3572 55.7212 78.1202C55.8293 78.0189 55.9349 77.9116 56.0323 77.8016L55.9771 77.7697Z" fill="#F7918F"/>
<path d="M84.5905 51.1132L84.9741 50.7681C86.4204 49.5987 86.9546 47.7742 86.1682 46.6953C85.3818 45.6165 83.5694 45.6914 82.1231 46.8609C79.5964 48.6808 77.084 50.6172 74.6634 52.6221C73.2289 53.8047 72.7193 55.6264 73.5241 56.6887C74.3289 57.7511 76.1466 57.6519 77.5811 56.4694C79.8898 54.6083 82.2246 52.81 84.5905 51.1132Z" fill="#F7918F"/>
<path d="M20.4391 122.642C21.7941 120.273 23.2918 117.831 24.869 115.399C25.8199 113.872 25.4564 112.914 24.0565 113.26C22.7194 113.591 20.9053 115 19.9128 116.477C18.2348 119.068 16.643 121.677 15.1679 124.222C14.2994 125.728 14.7763 126.596 16.2316 126.16C17.6869 125.724 19.5706 124.148 20.4391 122.642Z" fill="#F7918F"/>
<path d="M36.0862 102.459C36.4766 102.104 36.8205 101.713 37.0956 101.308C38.7286 98.9326 40.4725 96.5382 42.2823 94.1817C43.4636 92.6998 43.5351 91.2627 42.4442 90.97C41.4311 90.6996 39.7553 91.511 38.5611 92.8507L38.2466 93.2469C36.2887 95.7691 34.4397 98.313 32.707 100.869C31.6617 102.374 31.8048 103.691 33.0274 103.807C33.8909 103.89 35.1068 103.345 36.1392 102.411L36.0862 102.459Z" fill="#F7918F"/>
</svg>
