<svg width="18" height="21" viewBox="0 0 18 21" fill="none" xmlns="http://www.w3.org/2000/svg">
<path d="M9.1963 11.8836L6.08911 8.31841L14.375 2.37646L17.4821 5.94163L9.1963 11.8836Z" fill="#758C9C" fill-opacity="0.3"/>
<path d="M13.3392 1.78263L5.05332 7.72457L0.9104 5.94198L9.19625 0.594238L13.3392 1.78263Z" fill="#758C9C" fill-opacity="0.3"/>
<path d="M0.9104 14.2602V6.53564L9.19625 11.8834V19.6079L0.9104 14.2602Z" fill="#758C9C" fill-opacity="0.3"/>
<path d="M17.482 5.94189L9.19617 11.8838V19.6084L17.482 14.2606V5.94189Z" fill="#758C9C" fill-opacity="0.3"/>
<path d="M17.9002 5.82626L14.4937 2.37982C14.4007 2.2857 14.2668 2.27081 14.1602 2.34271L13.4532 2.8196L13.18 2.63536L13.5983 2.35323C13.6962 2.28719 13.7521 2.1605 13.7414 2.02899C13.7306 1.89749 13.6552 1.78542 13.5484 1.74218L9.29047 0.0186269C9.20572 -0.0157003 9.11514 -0.00130357 9.04306 0.0512894C9.04306 0.0512894 0.517924 5.80233 0.50899 5.81011C0.47106 5.84304 0.439599 5.88722 0.418728 5.94063C0.399782 5.98908 0.391465 6.04023 0.392697 6.0904L0.393506 14.1178C0.393506 14.2383 0.448533 14.3496 0.537832 14.4099L9.05165 20.1573C9.09635 20.1875 9.14626 20.2026 9.19613 20.2026C9.24596 20.2026 9.29586 20.1875 9.34053 20.1574L17.8556 14.4143C17.945 14.354 18 14.2426 18 14.1221V6.08536C18.001 5.98656 17.9648 5.89159 17.9002 5.82626ZM12.8756 3.20921L5.6458 8.08596C5.56489 8.14053 5.51156 8.23749 5.5027 8.34614C5.49385 8.45479 5.5305 8.56177 5.60117 8.63322L6.71762 9.76277L3.4494 7.55828L4.84491 8.12312C4.92409 8.1552 5.01127 8.14544 5.08386 8.09649L12.6024 3.02502L12.8756 3.20921ZM9.22636 0.70688L12.7621 2.13805L4.9093 7.435L1.37326 6.00375L9.22636 0.70688ZM8.90716 19.2804L0.971082 13.923L0.970312 6.66537L8.90782 12.0195L8.90716 19.2804ZM9.23032 11.4124L6.28595 8.43342L14.271 3.0472L17.2154 6.02611L9.23032 11.4124ZM17.4223 13.9272L9.48478 19.2808L9.48547 12.0195L17.4223 6.66577V13.9272Z" fill="#758C9C" fill-opacity="0.75"/>
</svg>
