<svg width="23" height="23" viewBox="0 0 23 23" fill="none" xmlns="http://www.w3.org/2000/svg">
<circle cx="11.5" cy="11.5" r="10.5" stroke="#F7918F"/>
<path d="M16.05 10.9944H12.0056V6.94998C12.0056 6.67098 11.7791 6.44446 11.5 6.44446C11.221 6.44446 10.9944 6.67098 10.9944 6.94998V10.9944H6.94998C6.67098 10.9944 6.44446 11.221 6.44446 11.5C6.44446 11.7791 6.67098 12.0056 6.94998 12.0056H10.9944V16.05C10.9944 16.3291 11.221 16.5556 11.5 16.5556C11.7791 16.5556 12.0056 16.3291 12.0056 16.05V12.0056H16.05C16.3291 12.0056 16.5556 11.7791 16.5556 11.5C16.5556 11.221 16.3291 10.9944 16.05 10.9944Z" fill="#F7918F"/>
</svg>
