<svg width="28" height="28" viewBox="0 0 28 28" fill="none" xmlns="http://www.w3.org/2000/svg">
<path d="M14.0218 0C6.29228 0 0 5.50356 0 12.2691C0 19.0346 6.29228 24.5381 14.0218 24.5381C15.4679 24.5365 16.9069 24.336 18.2984 23.9422L23.1447 27.027C23.277 27.1119 23.4297 27.1596 23.5868 27.1652C23.7439 27.1708 23.8996 27.134 24.0376 27.0588C24.1756 26.9835 24.2908 26.8725 24.3712 26.7374C24.4515 26.6023 24.4941 26.4481 24.4943 26.2909V20.393C25.5909 19.341 26.4659 18.0804 27.0679 16.6852C27.6699 15.29 27.9868 13.7885 27.9998 12.2691C28.0436 5.50356 21.7513 0 14.0218 0ZM23.0396 19.3764C22.9515 19.4581 22.8811 19.557 22.8328 19.6671C22.7846 19.7771 22.7595 19.896 22.7591 20.0161V24.6959L18.9207 22.2508C18.8136 22.1832 18.6931 22.1395 18.5675 22.1228C18.442 22.1062 18.3143 22.117 18.1933 22.1544C16.8426 22.5739 15.4362 22.7867 14.0218 22.7854C7.25628 22.7854 1.75272 18.0706 1.75272 12.2691C1.75272 6.46755 7.25628 1.75272 14.0218 1.75272C20.7873 1.75272 26.2909 6.46755 26.2909 12.2691C26.2709 13.6144 25.9716 14.9408 25.4119 16.1643C24.8522 17.3878 24.0443 18.4816 23.0396 19.3764Z" fill="#F7918F"/>
<path d="M20.1562 11.3928H7.88717C7.65474 11.3928 7.43183 11.4852 7.26748 11.6495C7.10313 11.8139 7.0108 12.0368 7.0108 12.2692C7.0108 12.5016 7.10313 12.7245 7.26748 12.8889C7.43183 13.0532 7.65474 13.1455 7.88717 13.1455H20.1562C20.3887 13.1455 20.6116 13.0532 20.7759 12.8889C20.9403 12.7245 21.0326 12.5016 21.0326 12.2692C21.0326 12.0368 20.9403 11.8139 20.7759 11.6495C20.6116 11.4852 20.3887 11.3928 20.1562 11.3928Z" fill="#F7918F"/>
<path d="M17.3082 15.7745H10.7355C10.5031 15.7745 10.2802 15.8669 10.1158 16.0312C9.95146 16.1956 9.85913 16.4185 9.85913 16.6509C9.85913 16.8833 9.95146 17.1062 10.1158 17.2706C10.2802 17.4349 10.5031 17.5273 10.7355 17.5273H17.3082C17.5406 17.5273 17.7635 17.4349 17.9279 17.2706C18.0922 17.1062 18.1846 16.8833 18.1846 16.6509C18.1846 16.4185 18.0922 16.1956 17.9279 16.0312C17.7635 15.8669 17.5406 15.7745 17.3082 15.7745Z" fill="#F7918F"/>
<path d="M8.13271 8.76371H19.911C20.1434 8.76371 20.3663 8.67138 20.5307 8.50703C20.695 8.34268 20.7874 8.11977 20.7874 7.88735C20.7874 7.65492 20.695 7.43202 20.5307 7.26767C20.3663 7.10332 20.1434 7.01099 19.911 7.01099H8.13271C7.90028 7.01099 7.67738 7.10332 7.51303 7.26767C7.34868 7.43202 7.25635 7.65492 7.25635 7.88735C7.25635 8.11977 7.34868 8.34268 7.51303 8.50703C7.67738 8.67138 7.90028 8.76371 8.13271 8.76371Z" fill="#F7918F"/>
</svg>
