<svg width="27" height="27" viewBox="0 0 27 27" fill="none" xmlns="http://www.w3.org/2000/svg">
<path d="M13.5 15.8824L8.73529 11.1177L21.4412 3.17651L26.2059 7.94122L13.5 15.8824Z" fill="#F8C49A"/>
<path d="M19.853 2.38242L7.14713 10.3236L0.794189 7.94125L13.5001 0.794189L19.853 2.38242Z" fill="#F8C49A"/>
<path d="M0.794189 19.0588V8.73523L13.5001 15.8823V26.2058L0.794189 19.0588Z" fill="#F8C49A"/>
<path d="M26.2059 7.94128L13.5 15.8825V26.206L26.2059 19.0589V7.94128Z" fill="#F8C49A"/>
<path d="M26.847 7.78658L21.6233 3.18054C21.4807 3.05476 21.2754 3.03485 21.1119 3.13094L20.0278 3.76829L19.6088 3.52206L20.2502 3.14501C20.4003 3.05674 20.4861 2.88742 20.4696 2.71167C20.4532 2.53592 20.3375 2.38614 20.1737 2.32836L13.6444 0.0248941C13.5145 -0.0209828 13.3756 -0.00174217 13.265 0.0685464C13.265 0.0685464 0.192211 7.75459 0.178511 7.76499C0.120348 7.809 0.0721045 7.86805 0.0400998 7.93942C0.0110475 8.00418 -0.00170716 8.07254 0.000182421 8.13958L0.00142246 18.8679C0.00142246 19.0289 0.085804 19.1777 0.222739 19.2583L13.2782 26.9395C13.3468 26.9799 13.4233 27 13.4998 27C13.5762 27 13.6527 26.9799 13.7212 26.9396L26.7785 19.2642C26.9156 19.1836 27 19.0347 27 18.8736V8.13285C27.0015 8.00081 26.946 7.87388 26.847 7.78658ZM19.142 4.28899L8.05552 10.8066C7.93146 10.8795 7.84967 11.0091 7.83609 11.1543C7.82251 11.2995 7.87872 11.4425 7.98708 11.538L9.6991 13.0476L4.68746 10.1013L6.82741 10.8562C6.94882 10.8991 7.0825 10.8861 7.19381 10.8206L18.723 4.04282L19.142 4.28899ZM13.5461 0.944718L18.9679 2.85742L6.92614 9.9366L1.50382 8.02378L13.5461 0.944718ZM13.0566 25.7675L0.887104 18.6075L0.885923 8.90801L13.0576 16.0636L13.0566 25.7675ZM13.5522 15.2522L9.03715 11.2709L21.2818 4.07247L25.7968 8.05366L13.5522 15.2522ZM26.1142 18.6132L13.9424 25.7681L13.9434 16.0636L26.1142 8.90855V18.6132Z" fill="#C48D69"/>
</svg>
