<svg width="12" height="12" viewBox="0 0 12 12" fill="none" xmlns="http://www.w3.org/2000/svg">
<path d="M0.379799 2.67993e-05C0.330352 -0.000524467 0.281268 0.00743395 0.235373 0.0234438C0.189477 0.0394537 0.147677 0.0631988 0.112377 0.0933125C0.0770767 0.123426 0.0489748 0.159314 0.0296885 0.198909C0.0104022 0.238505 0.000312421 0.281026 0 0.324026V1.75672C0 1.93828 0.170999 2.08698 0.379799 2.08698H11.6274C11.6768 2.08671 11.7257 2.07793 11.7713 2.06116C11.8168 2.04439 11.8581 2.01995 11.8927 1.98926C11.9273 1.95856 11.9546 1.92221 11.973 1.8823C11.9915 1.8424 12.0006 1.79971 12 1.75672V0.324026C12.0004 0.281381 11.991 0.239093 11.9724 0.199627C11.9538 0.16016 11.9264 0.124305 11.8917 0.0941492C11.857 0.0639936 11.8158 0.0401411 11.7704 0.0239817C11.725 0.00782231 11.6764 -0.000320773 11.6274 2.67993e-05H0.379799ZM0.379799 3.65219C0.280258 3.65204 0.184642 3.68593 0.113585 3.74655C0.0425293 3.80716 0.00173236 3.88964 0 3.97619V5.40888C0 5.59044 0.170999 5.73914 0.379799 5.73914H4.79999V11.676C4.79999 11.857 4.96439 12 5.17259 12H6.82738C6.87642 12.0003 6.92505 11.9922 6.97044 11.976C7.01583 11.9599 7.05706 11.936 7.09174 11.9059C7.12642 11.8757 7.15385 11.8399 7.17243 11.8004C7.19102 11.7609 7.20038 11.7186 7.19998 11.676V5.73914H11.6274C11.6768 5.73887 11.7257 5.73009 11.7713 5.71332C11.8168 5.69655 11.8581 5.67212 11.8927 5.64142C11.9273 5.61072 11.9546 5.57438 11.973 5.53447C11.9915 5.49456 12.0006 5.45188 12 5.40888V3.97619C11.9998 3.8903 11.9605 3.80797 11.8907 3.74724C11.8208 3.68651 11.7261 3.65233 11.6274 3.65219H0.379799Z" fill="#66D14F"/>
</svg>
